<svg width="32" height="32" viewBox="0 0 32 32" fill="none" xmlns="http://www.w3.org/2000/svg">
  <rect width="32" height="32" rx="6" fill="#4F46E5"/>
  <path d="M8 10C8 8.89543 8.89543 8 10 8H22C23.1046 8 24 8.89543 24 10V22C24 23.1046 23.1046 24 22 24H10C8.89543 24 8 23.1046 8 22V10Z" fill="white" fill-opacity="0.2"/>
  <path d="M12 12C12 11.4477 12.4477 11 13 11H19C19.5523 11 20 11.4477 20 12V13C20 13.5523 19.5523 14 19 14H13C12.4477 14 12 13.5523 12 13V12Z" fill="white"/>
  <path d="M12 16C12 15.4477 12.4477 15 13 15H19C19.5523 15 20 15.4477 20 16V17C20 17.5523 19.5523 18 19 18H13C12.4477 18 12 17.5523 12 17V16Z" fill="white"/>
  <path d="M12 20C12 19.4477 12.4477 19 13 19H19C19.5523 19 20 19.4477 20 20V21C20 21.5523 19.5523 22 19 22H13C12.4477 22 12 21.5523 12 21V20Z" fill="white"/>
</svg>
